{"title":"G.I. Joe Retaliation 2013 DVDRip x264 AC3-MONsta","uid":8653855,"size":1875611585,"categoryP":"video","categoryS":"movies","magnet":"?xt=urn:btih:21c0392097e2918e001c3f7e5ab51c8ac8244c1c&amp;dn=G.I.+Joe+Retaliation+2013+DVDRip+x264+AC3-MONsta&amp;tr=udp%3A%2F%2Ftracker.openbittorrent.com%3A80&amp;tr=udp%3A%2F%2Fopen.demonii.com%3A1337&amp;tr=udp%3A%2F%2Ftracker.coppersurfer.tk%3A6969&amp;tr=udp%3A%2F%2Fexodus.desync.com%3A6969","seeders":0,"leechers":0,"uploader":"Mystro4u","files":-1,"time":1373169035,"description":"G.I. Joe Retaliation 2013 DVDRip x264 AC3-MONsta\n \nFile size : 1.75 GiB \nDuration : 1h 45mn \nSource : Rental PAL DVD9\n\nVideo \nID : 1 \nFormat : AVC \nFormat/Info : Advanced Video Codec \nFormat profile : &lt;a class=&quot;__cf_email__&quot; href=&quot;/cdn-cgi/l/email-protection&quot; data-cfemail=&quot;bbf3d2dcd3fbf788958b&quot;&gt;[email&amp;#160;protected]&lt;/a&gt;&lt;script cf-hash='f9e31' type=&quot;text/javascript&quot;&gt;\n/* &lt;![CDATA[ */!function(){try{var t=&quot;currentScript&quot;in document?document.currentScript:function(){for(var t=document.getElementsByTagName(&quot;script&quot;),e=t.length;e--;)if(t[e].getAttribute(&quot;cf-hash&quot;))return t[e]}();if(t&amp;&amp;t.previousSibling){var e,r,n,i,c=t.previousSibling,a=c.getAttribute(&quot;data-cfemail&quot;);if(a){for(e=&quot;&quot;,r=parseInt(a.substr(0,2),16),n=2;a.length-n;n+=2)i=parseInt(a.substr(n,2),16)^r,e+=String.fromCharCode(i);e=document.createTextNode(e),c.parentNode.replaceChild(e,c)}}}catch(u){}}();/* ]]&gt; */&lt;/script&gt; \nFormat settings, CABAC : Yes \nFormat settings, ReFrames : 4 frames \nMuxing mode : Header stripping \nCodec ID : V_MPEG4/ISO/AVC \nDuration : 1h 45mn \nBit rate : 1 722 Kbps \nWidth : 720 pixels \nHeight : 432 pixels \nDisplay aspect ratio : 2.40:1 \nOriginal display aspect ratio : 2.40:1 \nFrame rate mode : Constant \nFrame rate : 25.000 fps \nColor space : YUV \nChroma subsampling : 4:2:0 \nBit depth : 8 bits \nScan type : Progressive \nBits/(Pixel*Frame) : 0.221 \nStream size : 1.24 GiB (71%) \nSubs : English, French\n\nAudio #1 \nID : 2 \nFormat : AC-3 \nFormat/Info : Audio Coding 3 \nMode extension : CM (complete main) \nFormat settings, Endianness : Big \nMuxing mode : Header stripping \nCodec ID : A_AC3 \nDuration : 1h 45mn \nBit rate mode : Constant \nBit rate : 448 Kbps \nChannel(s) : 6 channels \nChannel positions : Front: L C R, Side: L R, LFE \nSampling rate : 48.0 KHz \nBit depth : 16 bits \nCompression mode : Lossy \nStream size : 339 MiB (19%) \nTitle : ac3 5.1 \nLanguage : English \nDefault : Yes \nForced : No \n\nAudio #2 \nID : 3 \nFormat : AC-3 \nFormat/Info : Audio Coding 3 \nMode extension : CM (complete main) \nFormat settings, Endianness : Big \nMuxing mode : Header stripping \nCodec ID : A_AC3 \nDuration : 1h 45mn \nBit rate mode : Constant \nBit rate : 192 Kbps \nChannel(s) : 2 channels \nChannel positions : Front: L R \nSampling rate : 48.0 KHz \nBit depth : 16 bits \nCompression mode : Lossy \nStream size : 145 MiB (8%) \nTitle : ac3 (Directors Comments) \nLanguage : English \nDefault : No \nForced : No \n\n\n","torrent":{"xt":"urn:btih:21c0392097e2918e001c3f7e5ab51c8ac8244c1c","amp;dn":"G.I.+Joe+Retaliation+2013+DVDRip+x264+AC3-MONsta","amp;tr":["udp%3A%2F%2Ftracker.openbittorrent.com%3A80","udp%3A%2F%2Fopen.demonii.com%3A1337","udp%3A%2F%2Ftracker.coppersurfer.tk%3A6969","udp%3A%2F%2Fexodus.desync.com%3A6969"],"infoHash":"21c0392097e2918e001c3f7e5ab51c8ac8244c1c","infoHashBuffer":{"type":"Buffer","data":[33,192,57,32,151,226,145,142,0,28,63,126,90,181,28,138,200,36,76,28]},"announce":[],"urlList":[]}}